<svg width="7" height="7" viewBox="0 0 7 7" fill="none" xmlns="http://www.w3.org/2000/svg">
<path fill-rule="evenodd" clip-rule="evenodd" d="M3.5 0C5.43305 0 7 1.60647 7 3.58852C7 5.17367 5.9983 6.51838 4.60845 6.99333C4.431 7.02868 4.368 6.91661 4.368 6.82106C4.368 6.70276 4.3722 6.31637 4.3722 5.83618C4.3722 5.50158 4.2602 5.28319 4.13455 5.17189C4.914 5.08299 5.733 4.77952 5.733 3.40122C5.733 3.00922 5.5972 2.68933 5.3725 2.43803C5.4089 2.34738 5.52895 1.98238 5.3382 1.48818C5.3382 1.48818 5.0449 1.39203 4.37675 1.85613C4.0971 1.77668 3.7975 1.7367 3.5 1.7353C3.2025 1.7367 2.90325 1.77668 2.62395 1.85613C1.9551 1.39203 1.6611 1.48818 1.6611 1.48818C1.47105 1.98238 1.5911 2.34738 1.62715 2.43803C1.4035 2.68933 1.26665 3.00922 1.26665 3.40122C1.26665 4.77602 2.0839 5.08415 2.86125 5.1748C2.76115 5.2644 2.6705 5.42246 2.639 5.65451C2.4395 5.74621 1.9327 5.90491 1.6205 5.35646C1.6205 5.35646 1.43535 5.01167 1.08395 4.98647C1.08395 4.98647 0.7427 4.98194 1.06015 5.20454C1.06015 5.20454 1.2894 5.31479 1.44865 5.72953C1.44865 5.72953 1.6541 6.37002 2.6278 6.15302C2.62955 6.45297 2.6327 6.73566 2.6327 6.82106C2.6327 6.91591 2.5683 7.02692 2.39365 6.99367C1.00275 6.51942 0 5.17402 0 3.58852C0 1.60647 1.5673 0 3.5 0Z" fill="#695A81"/>
</svg>
