<svg width="12" height="7" viewBox="0 0 12 7" fill="none" xmlns="http://www.w3.org/2000/svg">
<path d="M10.8456 6.98962C10.7695 6.98962 10.6925 6.96739 10.6258 6.92292C10.4434 6.79939 10.396 6.55234 10.5146 6.37446C10.8792 5.83391 11.0704 5.198 11.0704 4.53688C11.0704 3.87577 10.8792 3.23985 10.5146 2.69831C10.3915 2.51648 10.4429 2.27042 10.6213 2.15183C10.8066 2.0288 11.0512 2.07969 11.1688 2.25757C11.6219 2.93203 11.8585 3.72506 11.8585 4.54034C11.8585 5.35463 11.6219 6.14816 11.1688 6.82262C11.1021 6.94071 10.9761 7 10.8501 7L10.8456 6.98962ZM9.71412 6.35025C9.63853 6.35025 9.56194 6.32802 9.49425 6.28157C9.31192 6.16348 9.26548 5.9189 9.38802 5.74102C9.62963 5.38477 9.75711 4.97762 9.75711 4.54034C9.75711 4.11788 9.62963 3.70283 9.38802 3.33917C9.26548 3.16129 9.31192 2.9172 9.49425 2.79812C9.67657 2.67904 9.9177 2.72401 10.0407 2.9093C10.3713 3.39846 10.5452 3.96915 10.5452 4.54676C10.5452 5.14018 10.3713 5.70297 10.0407 6.18473C9.96859 6.30331 9.84012 6.3626 9.71412 6.3626V6.35025ZM7.87111 2.81591C7.71596 1.23625 6.38089 0 4.75824 0C3.41378 0 2.22348 0.863698 1.79608 2.11626C0.78464 2.26548 0 3.13906 0 4.192C0 5.35018 0.944731 6.29392 2.10489 6.29392H7.4946C8.46503 6.29392 9.25658 5.50632 9.25658 4.53639C9.25658 3.69344 8.66366 2.99033 7.87062 2.8169V2.81591H7.87111ZM7.4946 5.50681H2.10637C1.38201 5.50681 0.787605 4.91833 0.787605 4.19348C0.787605 3.46961 1.37707 2.88014 2.10637 2.88014C2.45719 2.88014 2.78873 3.02096 3.03826 3.26604C3.18649 3.42119 3.43898 3.42119 3.59413 3.26604C3.74236 3.11731 3.74236 2.86532 3.59413 2.71017C3.3199 2.44237 2.98588 2.25016 2.62321 2.16122C2.99379 1.33853 3.82389 0.79057 4.75034 0.79057C6.03946 0.79057 7.0924 1.84252 7.0924 3.13164C7.0924 3.38463 7.05534 3.62871 6.97381 3.86589C6.90711 4.07341 7.01828 4.29526 7.22581 4.36987C7.26237 4.3847 7.30733 4.39211 7.34439 4.39211C7.50745 4.39211 7.66309 4.28785 7.71497 4.12529C7.76685 3.96965 7.80391 3.814 7.82615 3.65095C8.18882 3.79177 8.44872 4.14753 8.44872 4.55516C8.44872 5.0967 8.01144 5.533 7.4778 5.533L7.4946 5.50681Z" fill="#695A81"/>
</svg>
