<svg width="7" height="7" viewBox="0 0 7 7" fill="none" xmlns="http://www.w3.org/2000/svg">
<path d="M0 3.5C0 2.86533 0.156338 2.27967 0.469 1.743C0.781669 1.20633 1.20634 0.781669 1.743 0.469C2.27967 0.156331 2.86534 0 3.5 0C4.13467 0 4.72034 0.156331 5.257 0.469C5.79367 0.781669 6.21834 1.20633 6.531 1.743C6.84367 2.27967 7 2.86533 7 3.5C7 4.13467 6.84367 4.72033 6.531 5.257C6.21834 5.79367 5.79367 6.21833 5.257 6.531C4.72034 6.84367 4.13467 7 3.5 7C2.86534 7 2.27967 6.84367 1.743 6.531C1.20634 6.21833 0.781669 5.79367 0.469 5.257C0.156338 4.72033 0 4.13467 0 3.5ZM0.581 3.5C0.581 4.228 0.826 4.86967 1.316 5.425C1.54 4.98633 1.89467 4.56867 2.38 4.172C2.86534 3.77533 3.339 3.52567 3.801 3.423C3.731 3.25967 3.66334 3.11267 3.598 2.982C2.79534 3.23867 1.92734 3.367 0.994 3.367C0.812 3.367 0.676669 3.36467 0.588 3.36C0.588 3.37867 0.586838 3.402 0.5845 3.43C0.582169 3.458 0.581 3.48133 0.581 3.5ZM0.672 2.779C0.774669 2.78833 0.926338 2.793 1.127 2.793C1.90634 2.793 2.646 2.688 3.346 2.478C2.99134 1.848 2.60167 1.323 2.177 0.903C1.80834 1.08967 1.49217 1.34867 1.2285 1.68C0.964838 2.01133 0.779338 2.37767 0.672 2.779ZM1.715 5.803C2.24234 6.21367 2.83734 6.419 3.5 6.419C3.84534 6.419 4.18834 6.35367 4.529 6.223C4.43567 5.425 4.25367 4.65267 3.983 3.906C3.55367 3.99933 3.12084 4.235 2.6845 4.613C2.24817 4.991 1.925 5.38767 1.715 5.803ZM2.786 0.679C3.19667 1.10367 3.577 1.63333 3.927 2.268C4.56167 2.002 5.04 1.66367 5.362 1.253C4.82067 0.805 4.2 0.581 3.5 0.581C3.262 0.581 3.024 0.613669 2.786 0.679ZM4.179 2.765C4.249 2.91433 4.32834 3.10333 4.417 3.332C4.76234 3.29933 5.138 3.283 5.544 3.283C5.83334 3.283 6.12034 3.29 6.405 3.304C6.36767 2.66933 6.139 2.10467 5.719 1.61C5.41567 2.06267 4.90234 2.44767 4.179 2.765ZM4.592 3.822C4.83 4.51267 4.991 5.222 5.075 5.95C5.44367 5.712 5.74467 5.40633 5.978 5.033C6.21134 4.65967 6.35134 4.256 6.398 3.822C6.05734 3.79867 5.747 3.787 5.467 3.787C5.21034 3.787 4.91867 3.79867 4.592 3.822Z" fill="#695A81"/>
</svg>
