<svg width="7" height="7" viewBox="0 0 7 7" fill="none" xmlns="http://www.w3.org/2000/svg">
<path fill-rule="evenodd" clip-rule="evenodd" d="M3.5 0.538218C1.86439 0.538218 0.538461 1.86354 0.538461 3.49842C0.538461 5.13327 1.86439 6.45862 3.5 6.45862C3.50449 6.45862 3.50897 6.45873 3.51346 6.45894C4.05835 6.48618 4.80609 6.31976 5.40945 5.85682C5.52741 5.76633 5.69642 5.78854 5.78695 5.90641C5.87748 6.02431 5.85526 6.19324 5.73734 6.28373C5.02356 6.83139 4.14989 7.02802 3.49332 6.99684C1.5634 6.99321 0 5.42833 0 3.49842C0 1.56629 1.567 0 3.5 0C5.433 0 7 1.56629 7 3.49842C7 3.5043 7 3.5103 7 3.51632C7.00007 3.77524 7.00018 4.17582 6.86987 4.51447C6.80066 4.69438 6.68981 4.87131 6.51136 5.00209C6.33116 5.13421 6.10443 5.20278 5.83333 5.20278C5.56223 5.20278 5.33551 5.13421 5.1553 5.00209C4.99078 4.88153 4.88374 4.72175 4.81381 4.55659C4.48653 4.95168 3.99492 5.20278 3.5 5.20278C2.55828 5.20278 1.79487 4.43973 1.79487 3.49842C1.79487 2.55713 2.55828 1.79406 3.5 1.79406C3.9513 1.79406 4.36164 1.96924 4.66666 2.25534V2.06317C4.66666 1.91455 4.78721 1.79406 4.9359 1.79406C5.08458 1.79406 5.20513 1.91455 5.20513 2.06317V3.49842C5.20513 3.77858 5.20836 4.08479 5.29936 4.32128C5.34233 4.43291 5.39976 4.51386 5.47371 4.56807C5.5459 4.621 5.65571 4.66456 5.83333 4.66456C6.01095 4.66456 6.12076 4.621 6.19295 4.56807C6.2669 4.51386 6.32434 4.43291 6.3673 4.32128C6.4583 4.08479 6.46154 3.77858 6.46154 3.49842C6.46154 1.86354 5.13559 0.538218 3.5 0.538218ZM4.66666 3.49842C4.66666 2.8541 4.14436 2.33228 3.5 2.33228C2.85568 2.33228 2.33333 2.85439 2.33333 3.49842C2.33333 4.14245 2.85568 4.66456 3.5 4.66456C4.07838 4.66456 4.66666 4.1338 4.66666 3.49842Z" fill="#695A81"/>
</svg>
