<svg width="7" height="7" viewBox="0 0 7 7" fill="none" xmlns="http://www.w3.org/2000/svg">
<path d="M1.62802 2.24493H0.222314C0.159926 2.24493 0.109375 2.29551 0.109375 2.35787V6.8738C0.109375 6.93618 0.159926 6.98674 0.222314 6.98674H1.62802C1.69041 6.98674 1.74096 6.93618 1.74096 6.8738V2.35787C1.74096 2.29551 1.69041 2.24493 1.62802 2.24493Z" fill="#695A81"/>
<path d="M0.927589 0C0.416112 0 0 0.41566 0 0.926572C0 1.43771 0.416112 1.85353 0.927589 1.85353C1.43866 1.85353 1.85443 1.43769 1.85443 0.926572C1.85445 0.41566 1.43866 0 0.927589 0Z" fill="#695A81"/>
<path d="M5.2056 2.13275C4.64102 2.13275 4.22366 2.37546 3.97052 2.65123V2.35793C3.97052 2.29556 3.91997 2.24499 3.85758 2.24499H2.51138C2.44899 2.24499 2.39844 2.29556 2.39844 2.35793V6.87385C2.39844 6.93624 2.44899 6.98679 2.51138 6.98679H3.91401C3.9764 6.98679 4.02695 6.93624 4.02695 6.87385V4.63952C4.02695 3.8866 4.23146 3.59328 4.75631 3.59328C5.32791 3.59328 5.37334 4.06351 5.37334 4.67826V6.87388C5.37334 6.93626 5.42389 6.98682 5.48627 6.98682H6.88943C6.95181 6.98682 7.00236 6.93626 7.00236 6.87388V4.39681C7.00236 3.27725 6.78889 2.13275 5.2056 2.13275Z" fill="#695A81"/>
</svg>
