<svg width="9" height="6" viewBox="0 0 9 6" fill="none" xmlns="http://www.w3.org/2000/svg">
<path fill-rule="evenodd" clip-rule="evenodd" d="M5.84072 0.977163H8.13004V0.304688H5.84072V0.977163ZM6.96918 2.32775C6.4585 2.32775 6.07064 2.65229 6.0333 3.25195H7.86547C7.74129 2.54027 7.43307 2.32775 6.96918 2.32775ZM7.04072 5.10915C7.51226 5.10915 7.85827 4.80361 7.92891 4.5462H8.92059C8.63712 5.47716 8.05175 6 7.00068 6C5.65939 6 4.90664 5.02144 4.90664 3.72296C4.90664 0.665038 9.2081 0.555406 8.99213 4.00849H6.0333C6.0621 4.70969 6.34421 5.10915 7.04072 5.10915ZM2.57818 4.97461C3.11946 4.97461 3.49832 4.76103 3.49832 4.18472C3.49832 3.58696 3.16356 3.32767 2.60158 3.32767H1.24545V4.97461H2.57818ZM2.50664 2.42871C2.95703 2.42871 3.26794 2.21366 3.26794 1.71409C3.26794 1.18784 2.90619 1.02539 2.4117 1.02539H1.24545V2.42871H2.50664ZM2.66547 0C3.73229 0 4.47379 0.361707 4.47379 1.48715C4.47379 2.0444 4.25557 2.45967 3.70439 2.73948C4.4099 2.95447 4.74376 3.51895 4.74376 4.26067C4.74376 5.43807 3.83352 6 2.74466 6H0V0H2.66547Z" fill="#695A81"/>
</svg>
